# xmcd
#
# Track frame offsets:
#	212
#	18147
#	61802
#	73865
#	87182
#	98345
#	110190
#	124897
#	135752
#	158275
#	170095
#	182265
#
# Disc length: 2583 seconds
#
# Revision: 2
# Processed by: cddbd v1.5PL3 Copyright (c) Steve Scherf et al.
# Submitted via: EasyCDDAExtractor 7.0.5.1
#
DISCID=8a0a150c
DTITLE=B.B. King - Spotlight On Lucille
DYEAR=1991
DGENRE=Blues
TTITLE0=Slidin' And Glidin'
TTITLE1=Blues With B.B.
TTITLE2=King Of Guitar
TTITLE3=Jump With B.B.
TTITLE4=38th Street Blues
TTITLE5=Feedin' The Rock
TTITLE6=Just Like A Woman
TTITLE7=Step It Up
TTITLE8=Calypso Jazz
TTITLE9=Easy Listening (Blues)
TTITLE10=Shoutin' The Blues
TTITLE11=Powerhouse
EXTD=
EXTT0=
EXTT1=
EXTT2=
EXTT3=
EXTT4=
EXTT5=
EXTT6=
EXTT7=
EXTT8=
EXTT9=
EXTT10=
EXTT11=
PLAYORDER=
